<svg xmlns="http://www.w3.org/2000/svg" xmlns:xlink="http://www.w3.org/1999/xlink" version="1.1" x="0px" y="0px" viewBox="0 0 128 128" style="enable-background:new 0 0 128 128;" xml:space="preserve"><path d="M55.39,44.805c-1.12,0-2.028-0.883-2.028-1.971V10.533c0-1.088,0.908-1.969,2.028-1.969c1.12,0,2.028,0.881,2.028,1.969  v32.301C57.418,43.922,56.51,44.805,55.39,44.805z"></path><path d="M34.483,75.805c-1.12,0-2.028-0.883-2.028-1.971V38.545c0-1.088,0.908-1.971,2.028-1.971c1.12,0,2.028,0.883,2.028,1.971  v35.289C36.512,74.922,35.603,75.805,34.483,75.805z"></path><path d="M55.39,12.502c-3.513,0-6.37-2.803-6.37-6.25C49.019,2.805,51.877,0,55.39,0c3.513,0,6.37,2.805,6.37,6.252  C61.76,9.699,58.902,12.502,55.39,12.502z M55.39,3.938c-1.275,0-2.313,1.039-2.313,2.314c0,1.275,1.038,2.313,2.313,2.313  c1.275,0,2.313-1.037,2.313-2.313C57.703,4.977,56.665,3.938,55.39,3.938z"></path><path d="M26.37,25.912c-3.513,0-6.37-2.805-6.37-6.252c0-3.447,2.857-6.25,6.37-6.25s6.37,2.803,6.37,6.25  C32.74,23.107,29.883,25.912,26.37,25.912z M26.37,17.348c-1.275,0-2.313,1.037-2.313,2.313c0,1.275,1.038,2.314,2.313,2.314  s2.314-1.039,2.314-2.314C28.684,18.385,27.645,17.348,26.37,17.348z"></path><path d="M34.483,40.514c-3.513,0-6.37-2.805-6.37-6.252c0-3.447,2.857-6.252,6.37-6.252s6.37,2.805,6.37,6.252  C40.853,37.709,37.996,40.514,34.483,40.514z M34.483,31.949c-1.275,0-2.314,1.037-2.314,2.313c0,1.275,1.038,2.313,2.314,2.313  c1.275,0,2.313-1.037,2.313-2.313C36.797,32.986,35.759,31.949,34.483,31.949z"></path><path d="M47.149,44.805c-1.12,0-2.028-0.883-2.028-1.971V21.631H30.712c-1.12,0-2.028-0.883-2.028-1.971  c0-1.086,0.908-1.969,2.028-1.969h18.466v25.143C49.178,43.922,48.269,44.805,47.149,44.805z"></path><path d="M93.517,75.805c-1.12,0-2.028-0.883-2.028-1.971V38.545c0-1.088,0.908-1.971,2.028-1.971s2.028,0.883,2.028,1.971v35.289  C95.545,74.922,94.637,75.805,93.517,75.805z"></path><path d="M101.63,25.912c-3.513,0-6.37-2.805-6.37-6.252c0-3.447,2.857-6.25,6.37-6.25c3.513,0,6.37,2.803,6.37,6.25  C108,23.107,105.143,25.912,101.63,25.912z M101.63,17.348c-1.275,0-2.313,1.037-2.313,2.313c0,1.275,1.038,2.314,2.313,2.314  c1.275,0,2.313-1.039,2.313-2.314C103.943,18.385,102.905,17.348,101.63,17.348z"></path><path d="M93.517,40.514c-3.513,0-6.37-2.805-6.37-6.252c0-3.447,2.857-6.252,6.37-6.252c3.513,0,6.37,2.805,6.37,6.252  C99.887,37.709,97.029,40.514,93.517,40.514z M93.517,31.949c-1.275,0-2.313,1.037-2.313,2.313c0,1.275,1.038,2.313,2.313,2.313  c1.275,0,2.313-1.037,2.313-2.313C95.83,32.986,94.792,31.949,93.517,31.949z"></path><path d="M80.851,44.805c-1.12,0-2.028-0.883-2.028-1.971V17.691h18.466c1.12,0,2.028,0.883,2.028,1.969  c0,1.088-0.908,1.971-2.028,1.971H82.879v21.203C82.879,43.922,81.971,44.805,80.851,44.805z"></path><path d="M72.203,44.805c-1.12,0-2.028-0.883-2.028-1.971V10.533c0-1.088,0.908-1.969,2.028-1.969c1.12,0,2.028,0.881,2.028,1.969  v32.301C74.231,43.922,73.323,44.805,72.203,44.805z"></path><path d="M72.203,12.502c-3.513,0-6.37-2.803-6.37-6.25C65.833,2.805,68.69,0,72.203,0c3.513,0,6.37,2.805,6.37,6.252  C78.573,9.699,75.716,12.502,72.203,12.502z M72.203,3.938c-1.275,0-2.313,1.039-2.313,2.314c0,1.275,1.038,2.313,2.313,2.313  c1.276,0,2.313-1.037,2.313-2.313C74.517,4.977,73.479,3.938,72.203,3.938z"></path><path d="M103.424,120.32l-1.148-18.923c-1.016-7.851-12.716-11.418-13.043-11.566l-12.161-5.186L65.719,98.32H63h-0.061  L51.587,84.646l-12.161,5.186c-0.327,0.148-12.027,3.716-13.043,11.566l-1.148,18.923l-0.008,0.172c0,0.312,0.074,3.11,2.706,5.506  c1.986,1.808,4.703,2.002,5.778,2.002c0.155,0,0.273-0.004,0.345-0.007H63h3h28.602c0.072,0.003,0.19,0.007,0.345,0.007  c1.075,0,3.792-0.194,5.778-2.002c2.632-2.396,2.706-5.194,2.706-5.506L103.424,120.32z M98.033,123.039  c-0.779,0.709-2.104,0.961-3.086,0.961l-0.29-0.007H34.001L33.711,124c-0.981,0-2.307-0.252-3.086-0.961  c-1.194-1.087-1.37-2.268-1.395-2.503l1.128-18.709c0.717-5.53,10.662-8.327,10.676-8.334l9.379-3.999L61.06,102.32H63h3h1.598  l10.647-12.826l9.379,3.999c0.014,0.007,9.959,2.804,10.676,8.334l1.128,18.709C99.403,120.771,99.227,121.952,98.033,123.039z"></path><path d="M64.328,80.92c-8.523,0-15.457-6.934-15.457-15.457c0-8.524,6.934-15.459,15.457-15.459c8.524,0,15.459,6.935,15.459,15.459  C79.787,73.986,72.853,80.92,64.328,80.92z M64.328,54.004c-6.317,0-11.457,5.141-11.457,11.459c0,6.317,5.14,11.457,11.457,11.457  c6.318,0,11.459-5.14,11.459-11.457C75.787,59.145,70.646,54.004,64.328,54.004z"></path></svg>