<svg xmlns="http://www.w3.org/2000/svg" data-name="Layer 1" viewBox="0 0 100 100" x="0px" y="0px"><title>Artboard 25</title><path d="M92.82,3.23h-5.5a2.5,2.5,0,0,0,0,5h5.5A1.68,1.68,0,0,1,94.5,9.91v5.5a2.5,2.5,0,0,0,5,0V9.91A6.69,6.69,0,0,0,92.82,3.23Z"></path><path d="M3,17.9a2.5,2.5,0,0,0,2.5-2.5V9.91A1.68,1.68,0,0,1,7.18,8.23h5.5a2.5,2.5,0,0,0,0-5H7.18A6.69,6.69,0,0,0,.5,9.91v5.5A2.5,2.5,0,0,0,3,17.9Z"></path><path d="M12.67,91.77H7.18A1.68,1.68,0,0,1,5.5,90.09V84.6a2.5,2.5,0,0,0-5,0v5.5a6.69,6.69,0,0,0,6.68,6.68h5.5a2.5,2.5,0,1,0,0-5Z"></path><path d="M97,82.1a2.5,2.5,0,0,0-2.5,2.5v5.5a1.68,1.68,0,0,1-1.68,1.68h-5.5a2.5,2.5,0,0,0,0,5h5.5a6.69,6.69,0,0,0,6.68-6.68V84.6A2.5,2.5,0,0,0,97,82.1Z"></path><path d="M89.31,57.23A40.09,40.09,0,0,0,83,27.15,39.77,39.77,0,0,0,29.67,15.43a8.41,8.41,0,0,0-10.44-.65,8.5,8.5,0,0,0-1.91,12.15A40.06,40.06,0,0,0,49.94,90.22a39.68,39.68,0,0,0,19.91-5.39A8.23,8.23,0,0,0,75,86.63,8.28,8.28,0,0,0,82,74,40.51,40.51,0,0,0,89.31,57.23Zm-12.82,13a8.26,8.26,0,0,0-9.6,6.65,8.27,8.27,0,0,0,.19,3.81,34.9,34.9,0,0,1-8.56,3.46c3.1-4.5,5.29-11.34,6.54-19,7.53-1.23,14.29-3.39,18.8-6.42a35.46,35.46,0,0,1-5.65,12A8.26,8.26,0,0,0,76.5,70.21ZM28.86,58.84C19.44,56.33,15.2,52.64,15.2,50c0-3.44,6.89-7.85,18.81-10a97.61,97.61,0,0,0-.52,10c0,1.47,0,3,.11,4.46A9.34,9.34,0,0,0,28.86,58.84ZM22.49,30.12a8.51,8.51,0,0,0,1.54.14,8.38,8.38,0,0,0,4.8-1.51,8.51,8.51,0,0,0,3.41-9A34.9,34.9,0,0,1,41.14,16c-3,4.5-5.21,11.28-6.44,18.83-7.36,1.2-14,3.29-18.48,6.21a34.87,34.87,0,0,1,5.17-11.17A8.41,8.41,0,0,0,22.49,30.12ZM71.26,41.2c9.16,2.52,13.3,6.14,13.3,8.77,0,3.44-6.89,7.85-18.81,10a97.61,97.61,0,0,0,.52-10c0-1.31,0-2.64-.09-4A9.34,9.34,0,0,0,71.26,41.2Zm-25,20.09a9.28,9.28,0,0,0-7.42-7.43h0l-.25,0c-.05-1.29-.09-2.58-.09-3.86a94.15,94.15,0,0,1,.6-10.79,94.15,94.15,0,0,1,10.79-.6c1.26,0,2.52,0,3.78.08a9.27,9.27,0,0,0,7.49,7.84h.05c0,1.16.07,2.31.07,3.46a94.15,94.15,0,0,1-.6,10.79,94.15,94.15,0,0,1-10.79.6C48.66,61.36,47.45,61.33,46.24,61.28ZM67,38.11a4.29,4.29,0,0,1-5,3.47,4.22,4.22,0,0,1-2.74-1.78,4.35,4.35,0,0,1,1.11-6,4.22,4.22,0,0,1,3.19-.69h0a4.22,4.22,0,0,1,2.74,1.78A4.31,4.31,0,0,1,67,38.11Zm-9.46-8.44a9.26,9.26,0,0,0-3.26,4c-1.47-.06-3-.11-4.43-.11a97.61,97.61,0,0,0-10,.52c2.19-11.92,6.6-18.81,10-18.81,2.66,0,6.36,4.26,8.88,13.7A9.38,9.38,0,0,0,57.57,29.68ZM32.94,62.25a4.31,4.31,0,0,1,4.22-3.54,4.2,4.2,0,0,1,.77.07,4.33,4.33,0,0,1,1.63,7.8,4.24,4.24,0,0,1-5.93-1.09A4.31,4.31,0,0,1,32.94,62.25Zm9.46,8.44a9.26,9.26,0,0,0,3.42-4.42c1.34.05,2.7.09,4.06.09a97.61,97.61,0,0,0,10-.52c-2.19,11.92-6.6,18.81-10,18.81-2.6,0-6.23-4.11-8.75-13.23A9.38,9.38,0,0,0,42.4,70.68ZM78.83,30a35.23,35.23,0,0,1,5.1,11.29,38.8,38.8,0,0,0-11.88-5,9.29,9.29,0,0,0-7.53-8.06c-.28-.05-.56-.09-.84-.11a38.94,38.94,0,0,0-5.17-12.24A34.59,34.59,0,0,1,78.83,30Zm-58.2-8.83a3.49,3.49,0,0,1,1.45-2.25,3.43,3.43,0,0,1,4.8.88,3.53,3.53,0,0,1-.9,4.88,3.41,3.41,0,0,1-2.58.56A3.48,3.48,0,0,1,20.63,21.14ZM16.14,58.88A39.77,39.77,0,0,0,27.9,63.76a9.27,9.27,0,0,0,7.55,8.43c.25,0,.49.08.74.1a38.37,38.37,0,0,0,5.06,11.82A35,35,0,0,1,16.14,58.88ZM78.19,78.94a3.26,3.26,0,0,1-3.78,2.64,3.2,3.2,0,0,1-2.08-1.35,3.31,3.31,0,0,1,.84-4.57,3.2,3.2,0,0,1,2.42-.52h0a3.2,3.2,0,0,1,2.08,1.35A3.28,3.28,0,0,1,78.19,78.94Z"></path></svg>