<svg xmlns="http://www.w3.org/2000/svg" xmlns:xlink="http://www.w3.org/1999/xlink" viewBox="0 0 60 41" version="1.1" x="0px" y="0px"><title>3D Printing - Outline - 025 - Software</title><desc>Created with Sketch.</desc><g stroke="none" stroke-width="1" fill="none" fill-rule="evenodd"><g fill-rule="nonzero" fill="#000000"><path d="M57,36 L3,36 L3,3 C3.00180771,1.34389511 4.34389511,0.00180771165 6,0 L54,0 C55.6561049,0.00180771165 56.9981923,1.34389511 57,3 L57,36 Z M5,34 L55,34 L55,3 C54.9994488,2.44794374 54.5520563,2.00055123 54,2 L6,2 C5.44801218,2.00071619 5.00071619,2.44801218 5,3 L5,34 Z"></path><path d="M52.77734,41 L7.03369,41 C6.56342349,41.0015931 6.10019522,40.8857904 5.686,40.66309 L1.22266,38.22754 C0.306215301,37.7764046 -0.175531957,36.7506653 0.0625,35.75732 C0.353328182,34.6976334 1.3292087,33.9727711 2.42773,34.00048 L57.4668,34 C58.6008091,33.9500694 59.6217057,34.6826548 59.9375,35.77295 C60.1700275,36.7505801 59.6915959,37.7584145 58.78711,38.19629 L54.38672,40.59815 C53.8920362,40.8638802 53.3388742,41.0020005 52.77734,41 L52.77734,41 Z M2.18066,36.47168 L6.64306,38.90674 C6.76365451,38.9693832 6.8978032,39.0014102 7.03369,39 L52.77734,39 C53.0041046,39.0015846 53.2277849,38.947427 53.42871,38.84229 L57.8291,36.44043 C57.87402,36.4165 58.01562,36.33252 57.9971,36.25928 C57.97269,36.16065 57.80472,36.00293 57.45804,36 L2.48633,36 C2.18457,36.00488 2.03223,36.12207 2.0044,36.23584 C1.9844,36.31738 2.04346,36.39697 2.18067,36.47168 L2.18066,36.47168 Z"></path><path d="M33.44189,41 L26.51221,41 C25.6958357,40.9578674 24.9926269,40.4104697 24.75147,39.62939 L22.5,34 L37.4541,34 L35.20264,39.62939 C34.9614818,40.410473 34.258268,40.9578715 33.44189,41 L33.44189,41 Z M26.66406,39 L33.29,39 C33.3116364,38.9637371 33.3300984,38.9256721 33.34518,38.88623 L34.5,36 L25.4541,36 L26.60889,38.88623 C26.6239684,38.9256718 26.6424271,38.9637367 26.66406,39 Z"></path><path d="M14,32 L8,32 C7.44771525,32 7,31.5522847 7,31 L7,5 C7,4.44771525 7.44771525,4 8,4 L14,4 C14.5522847,4 15,4.44771525 15,5 L15,31 C15,31.5522847 14.5522847,32 14,32 Z M9,30 L13,30 L13,6 L9,6 L9,30 Z"></path><path d="M52,12 L46,12 C45.4477153,12 45,11.5522847 45,11 L45,5 C45,4.44771525 45.4477153,4 46,4 L52,4 C52.2652376,3.99993101 52.5196316,4.1052657 52.707183,4.29281703 C52.8947343,4.48036837 53.000069,4.73476237 53,5 L53,11 C53.000069,11.2652376 52.8947343,11.5196316 52.707183,11.707183 C52.5196316,11.8947343 52.2652376,12.000069 52,12 L52,12 Z M47,10 L51,10 L51,6 L47,6 L47,10 Z"></path><path d="M52,22 L46,22 C45.4477153,22 45,21.5522847 45,21 L45,15 C45,14.4477153 45.4477153,14 46,14 L52,14 C52.2652376,13.999931 52.5196316,14.1052657 52.707183,14.292817 C52.8947343,14.4803684 53.000069,14.7347624 53,15 L53,21 C53.000069,21.2652376 52.8947343,21.5196316 52.707183,21.707183 C52.5196316,21.8947343 52.2652376,22.000069 52,22 L52,22 Z M47,20 L51,20 L51,16 L47,16 L47,20 Z"></path><path d="M52,32 L46,32 C45.4477153,32 45,31.5522847 45,31 L45,25 C45,24.4477153 45.4477153,24 46,24 L52,24 C52.2652376,23.999931 52.5196316,24.1052657 52.707183,24.292817 C52.8947343,24.4803684 53.000069,24.7347624 53,25 L53,31 C53.000069,31.2652376 52.8947343,31.5196316 52.707183,31.707183 C52.5196316,31.8947343 52.2652376,32.000069 52,32 L52,32 Z M47,30 L51,30 L51,26 L47,26 L47,30 Z"></path><path d="M34.5,16 L25.5,16 C25.255052,16.0000294 25.0186016,15.9102099 24.83545,15.74756 L20.33545,11.74756 C20.1220646,11.55767 19.9999977,11.2856424 19.9999977,11 C19.9999977,10.7143576 20.1220646,10.44233 20.33545,10.25244 L24.83545,6.25244 C25.0186016,6.08979008 25.255052,5.9999706 25.5,6 L34.5,6 C34.744948,5.9999706 34.9813984,6.08979008 35.16455,6.25244 L39.66455,10.25244 C39.8779354,10.44233 40.0000023,10.7143576 40.0000023,11 C40.0000023,11.2856424 39.8779354,11.55767 39.66455,11.74756 L35.16455,15.74756 C34.9813984,15.9102099 34.744948,16.0000294 34.5,16 Z M25.88037,14 L34.11963,14 L37.49463,11 L34.11963,8 L25.88037,8 L22.50537,11 L25.88037,14 Z"></path><path d="M34.5,30 L25.5,30 C25.255052,30.0000294 25.0186016,29.9102099 24.83545,29.74756 L20.33545,25.74756 C20.0672413,25.5104363 19.9462128,25.1480505 20.0180996,24.7973428 C20.0899864,24.4466352 20.3438257,24.1610884 20.6836954,24.0486065 C21.023565,23.9361245 21.3976351,24.0138608 21.66455,24.25244 L25.88037,28 L34.11963,28 L38.33545,24.25244 C38.6023649,24.0138608 38.976435,23.9361245 39.3163046,24.0486065 C39.6561743,24.1610884 39.9100136,24.4466352 39.9819004,24.7973428 C40.0537872,25.1480505 39.9327587,25.5104363 39.66455,25.74756 L35.16455,29.74756 C34.9813984,29.9102099 34.744948,30.0000294 34.5,30 Z"></path><path d="M21,26 C20.4477153,26 20,25.5522847 20,25 L20,11 C20,10.4477153 20.4477153,10 21,10 C21.5522847,10 22,10.4477153 22,11 L22,25 C22,25.5522847 21.5522847,26 21,26 Z"></path><path d="M39,26 C38.4477153,26 38,25.5522847 38,25 L38,11 C38,10.4477153 38.4477153,10 39,10 C39.5522847,10 40,10.4477153 40,11 L40,25 C40,25.5522847 39.5522847,26 39,26 Z"></path><path d="M34,30 C33.4477153,30 33,29.5522847 33,29 L33,15 C33,14.4477153 33.4477153,14 34,14 C34.5522847,14 35,14.4477153 35,15 L35,29 C35,29.5522847 34.5522847,30 34,30 Z"></path><path d="M26,30 C25.4477153,30 25,29.5522847 25,29 L25,15 C25,14.4477153 25.4477153,14 26,14 C26.5522847,14 27,14.4477153 27,15 L27,29 C27,29.5522847 26.5522847,30 26,30 Z"></path></g></g></svg>