<?xml version="1.0" encoding="utf-8"?>
<!-- Generator: Adobe Illustrator 20.0.0, SVG Export Plug-In . SVG Version: 6.00 Build 0)  -->
<!DOCTYPE svg PUBLIC "-//W3C//DTD SVG 1.1//EN" "http://www.w3.org/Graphics/SVG/1.1/DTD/svg11.dtd">
<svg version="1.1" id="Layer_1" xmlns="http://www.w3.org/2000/svg" xmlns:xlink="http://www.w3.org/1999/xlink" x="0px" y="0px"
	 viewBox="0 0 50 50" style="enable-background:new 0 0 50 50;" xml:space="preserve">
<style type="text/css">
	.st0{fill:#FFFFFF;}
	.st1{clip-path:url(#SVGID_2_);}
	.st2{fill:#CB2027;}
	.st3{fill:#22205F;}
</style>
<title>Asset 1</title>
<g id="Layer_2">
	<g id="Layer_1-2">
		<path class="st0" d="M25,49C11.7,49,1,38.3,1,25S11.7,1,25,1s24,10.7,24,24S38.3,49,25,49z"/>
		<path class="st0" d="M25,2c12.7,0,23,10.3,23,23S37.7,48,25,48S2,37.7,2,25S12.3,2,25,2 M25,0C11.2,0,0,11.2,0,25s11.2,25,25,25
			s25-11.2,25-25S38.8,0,25,0z"/>
		<g>
			<defs>
				<circle id="SVGID_1_" cx="25" cy="25" r="23"/>
			</defs>
			<clipPath id="SVGID_2_">
				<use xlink:href="#SVGID_1_"  style="overflow:visible;"/>
			</clipPath>
			<g class="st1">
				<path class="st2" d="M-21.7,29.5v-9.1c0.4,0,0.8,0,1.2,0h40.7V1.7h9.4v18.7h41.7v9.2H29.5v18.5h-9.3V29.5h-31.6
					C-14.9,29.5-18.3,29.5-21.7,29.5z"/>
				<path class="st0" d="M-21.7,29.5c3.4,0,6.8,0.1,10.2,0.1h31.6v18.5h9.4V29.6h41.7v-9.2H29.5V1.7h3.2v14c0.3-0.2,0.6-0.3,0.8-0.4
					c5.9-2.9,11.7-5.8,17.6-8.7c3.1-1.6,6.2-3.2,9.4-4.9h3.5c-0.7,0.4-1.3,0.8-2,1.2c-8.9,4.5-17.7,8.9-26.6,13.3
					c-0.4,0.2-0.8,0.5-1.3,0.7c1,0.2,2.1,0.3,3.1,0.3c1.9,0.1,3.9-0.3,5.6-1.3c5.8-3,11.6-5.8,17.4-8.7c3.6-1.8,7.2-3.7,10.8-5.5
					c0.2,0.1,0.5,0.2,0.6,0.3c0,0.3,0,0.7,0,1v45.5h-93.3V43l20-10l-0.1-0.3h-19.8C-21.7,31.6-21.7,30.6-21.7,29.5z M-11,48.1h27.9
					v-14L-11,48.1z M60.2,48.1l0.1-0.2L32.8,34.2v14L60.2,48.1z M-21,47.9l0.1,0.3c1.6,0,3.3,0.1,5,0c0.8,0,1.6-0.2,2.4-0.6
					c7.7-3.8,15.3-7.6,23-11.4c2.1-1,4.1-2.1,6.4-3.2c-3.1-0.7-6.3-0.3-9.1,1.2l-13,6.4L-21,47.9z M71.3,17.1V7l-19.9,9.9l0.1,0.2
					H71.3z M71.3,32.8H51.5V33l19.8,9.9C71.3,39.4,71.3,36.2,71.3,32.8L71.3,32.8z M41.2,32.7L41,33l30.3,15.2
					c0.1-0.8,0.1-1.7,0-2.5c-0.1-0.5-0.4-1-0.8-1.3c-7.5-3.8-14.9-7.5-22.4-11.2c-0.5-0.3-1-0.4-1.5-0.4
					C44.8,32.7,42.9,32.7,41.2,32.7L41.2,32.7z"/>
				<path class="st0" d="M20.2,1.7v18.7h-40.7c-0.4,0-0.8,0-1.2,0v-3.2h19.9v-0.3L-21.7,7V5.2c7.4,3.7,14.8,7.2,22,11
					C3.1,17.6,5.8,17,8.6,17C2.4,13.8-3.8,10.7-10,7.5c-3.8-1.9-7.5-3.9-11.3-5.8h10.5c0.3,0.2,0.6,0.4,0.9,0.6l21.5,10.8l5.4,2.7
					v-14L20.2,1.7z"/>
				<path class="st3" d="M60.6,1.7c-3.1,1.6-6.2,3.3-9.4,4.9c-5.8,3-11.7,5.8-17.6,8.8l-0.8,0.4v-14L60.6,1.7z"/>
				<path class="st3" d="M17,1.7v14L11.6,13L-9.9,2.3c-0.3-0.2-0.6-0.4-0.9-0.6L17,1.7z"/>
				<path class="st2" d="M71.1,1.7c-3.6,1.8-7.2,3.7-10.8,5.5c-5.8,2.9-11.6,5.7-17.4,8.7c-1.7,1-3.7,1.4-5.6,1.3
					c-1.1,0-2.1-0.1-3.2-0.3c0.4-0.2,0.8-0.5,1.3-0.7c8.9-4.4,17.8-8.9,26.7-13.3c0.7-0.3,1.3-0.8,2-1.2L71.1,1.7z"/>
				<path class="st3" d="M-21.7,7l19.9,9.9v0.3h-19.9C-21.7,13.8-21.7,10.4-21.7,7z"/>
				<path class="st3" d="M-21.7,32.7h19.8l0.2,0.3l-20,10C-21.7,39.5-21.7,36.1-21.7,32.7z"/>
				<path class="st2" d="M-21.4,1.7c3.8,2,7.6,3.9,11.4,5.9c6.2,3.1,12.4,6.2,18.6,9.5c-2.8,0-5.5,0.6-8.2-0.8
					c-7.3-3.8-14.7-7.4-22-11L-21.4,1.7z"/>
				<path class="st3" d="M-11,48.1l27.9-14v14H-11z"/>
				<path class="st3" d="M60.2,48.1H32.8v-14l27.5,13.8L60.2,48.1z"/>
				<path class="st2" d="M-21,47.9l14.7-7.4l12.9-6.5c2.8-1.4,6-1.8,9.1-1.2c-2.2,1.2-4.3,2.2-6.4,3.2C1.7,40-6,43.8-13.6,47.6
					c-0.7,0.3-1.5,0.5-2.3,0.6c-1.7,0.1-3.3,0-5,0L-21,47.9z"/>
				<path class="st3" d="M71.3,17.1H51.6l-0.1-0.2L71.3,7C71.3,10.4,71.3,13.7,71.3,17.1z"/>
				<path class="st3" d="M71.3,32.8v10.1L51.5,33v-0.2L71.3,32.8z"/>
				<path class="st2" d="M41.1,32.7c1.9,0,3.7,0,5.5,0c0.5,0,1,0.2,1.5,0.4c7.4,3.7,14.9,7.5,22.3,11.2c0.4,0.3,0.7,0.8,0.8,1.3
					c0.1,0.8,0.1,1.7,0,2.5L41,33L41.1,32.7z"/>
			</g>
		</g>
	</g>
</g>
</svg>
