<?xml version="1.0" encoding="iso-8859-1"?>
<!-- Generator: Adobe Illustrator 19.0.0, SVG Export Plug-In . SVG Version: 6.00 Build 0)  -->
<svg version="1.1" id="Layer_1" xmlns="http://www.w3.org/2000/svg" xmlns:xlink="http://www.w3.org/1999/xlink" x="0px" y="0px"
	 viewBox="0 0 234.903 234.903" style="enable-background:new 0 0 234.903 234.903;" xml:space="preserve">
<g>
	<g>
		<g>
			<path d="M234.884,168.069l-4.817-75.859c-0.005-0.139-0.01-0.26-0.015-0.367c0.01-0.238,0.02-0.473,0.02-0.716
				c0-29.727-24.18-53.912-53.907-53.912c-12.043,0-20.344,4.032-27.256,8.883c-0.721-0.223-1.421-0.443-2.105-0.659
				c-6.974-2.197-13.001-4.096-24.688-4.74c-0.136-0.007-0.275-0.01-0.411-0.01h-8.514c-0.136,0-0.272,0.002-0.409,0.01
				c-11.689,0.644-17.712,2.541-24.688,4.74c-0.684,0.215-1.384,0.436-2.105,0.661c-6.914-4.851-15.21-8.883-27.256-8.883
				c-29.725,0-53.91,24.185-53.91,53.912c0,0.238,0.007,0.471,0.022,0.684c-0.007,0.129-0.015,0.26-0.017,0.399l-4.814,75.859
				C0.005,168.228,0,168.386,0,168.54c0,16.072,13.076,29.148,29.148,29.148h15.218c2.558,0,4.936-1.315,6.295-3.482l30.597-48.808
				h72.384l30.602,48.808c1.36,2.167,3.735,3.482,6.293,3.482h15.218c16.072,0,29.148-13.073,29.148-29.148
				C234.899,168.384,234.894,168.225,234.884,168.069z M205.754,182.826H194.65l-30.599-48.808c-1.36-2.167-3.739-3.482-6.298-3.482
				H77.146c-2.558,0-4.936,1.315-6.295,3.482l-30.597,48.808H29.15c-7.808,0-14.173-6.293-14.287-14.076l4.809-75.765
				c0.01-0.156,0.01-0.119,0.01-0.277c0.015-0.203,0.03-0.404,0.037-0.619c0.002-0.129,0.005-0.258,0.002-0.384
				c-0.005-0.238-0.017-0.471-0.035-0.577c0-21.533,17.518-39.054,39.051-39.054c8.972,0,14.807,3.098,21.315,8.1
				c1.877,1.444,4.331,1.904,6.6,1.243c2.155-0.624,4.081-1.233,5.911-1.808c6.466-2.036,11.151-3.512,20.839-4.064h8.1
				c9.688,0.55,14.376,2.026,20.842,4.064c1.828,0.575,3.759,1.184,5.911,1.808c2.273,0.659,4.72,0.201,6.597-1.243
				c6.511-5.002,12.343-8.1,21.315-8.1c21.533,0,39.049,17.518,39.049,38.962c-0.015,0.223-0.03,0.443-0.03,0.669
				c-0.005,0.102-0.005,0.203,0,0.305c0.005,0.24,0.015,0.463,0.03,0.505c0,0.156,0.005,0.315,0.015,0.471l4.812,75.765
				C219.924,176.534,213.559,182.826,205.754,182.826z"/>
			<circle cx="182.024" cy="113.305" r="10.092"/>
			<circle cx="182.029" cy="80.747" r="10.092"/>
			<circle cx="198.304" cy="97.022" r="10.092"/>
			<circle cx="165.744" cy="97.022" r="10.092"/>
			<polygon points="53.987,81.359 39.128,81.359 39.128,91.76 28.724,91.76 28.724,106.619 39.128,106.619 39.128,117.02 
				53.987,117.02 53.987,106.619 64.388,106.619 64.388,91.76 53.987,91.76 			"/>
		</g>
	</g>
</g>
<g>
</g>
<g>
</g>
<g>
</g>
<g>
</g>
<g>
</g>
<g>
</g>
<g>
</g>
<g>
</g>
<g>
</g>
<g>
</g>
<g>
</g>
<g>
</g>
<g>
</g>
<g>
</g>
<g>
</g>
</svg>
