<?xml version="1.0" encoding="iso-8859-1"?>
<!-- Generator: Adobe Illustrator 16.0.0, SVG Export Plug-In . SVG Version: 6.00 Build 0)  -->
<!DOCTYPE svg PUBLIC "-//W3C//DTD SVG 1.1//EN" "http://www.w3.org/Graphics/SVG/1.1/DTD/svg11.dtd">
<svg version="1.1" id="Capa_1" xmlns="http://www.w3.org/2000/svg" xmlns:xlink="http://www.w3.org/1999/xlink" x="0px" y="0px"
	 width="569.848px" height="569.848px" viewBox="0 0 569.848 569.848" style="enable-background:new 0 0 569.848 569.848;"
	 xml:space="preserve">
<g>
	<path d="M452.564,38.441C452.564,17.212,435.342,0,414.123,0H155.696c-21.238,0-38.413,17.212-38.413,38.441v492.967
		c0,21.238,17.184,38.439,38.413,38.439h258.427c21.219,0,38.441-17.201,38.441-38.439V38.441z M284.273,546.383
		c-13.369,0-24.203-10.816-24.203-24.184c0-13.359,10.834-24.184,24.203-24.184c13.34,0,24.184,10.824,24.184,24.184
		C308.457,535.566,297.604,546.383,284.273,546.383z M400.688,453.512c0,5.842-4.744,10.586-10.586,10.586H179.727
		c-5.843,0-10.586-4.744-10.586-10.586V73.995c0-5.843,4.743-10.576,10.586-10.576h210.375c5.842,0,10.586,4.733,10.586,10.576
		V453.512z"/>
	<path d="M351.67,181.602H218.187c-12.689,0-23.017,10.328-23.017,23.017v120.833c0,12.689,10.328,23.016,23.017,23.016H351.67
		c12.689,0,23.018-10.326,23.018-23.016V204.619C374.688,191.929,364.359,181.602,351.67,181.602z M356.27,325.451
		c0,2.543-2.066,4.598-4.6,4.598H218.187c-2.544,0-4.6-2.064-4.6-4.598V204.619c0-2.544,2.065-4.6,4.6-4.6H351.67
		c2.543,0,4.6,2.065,4.6,4.6V325.451L356.27,325.451z"/>
	<path d="M267.291,242.285c-1.396-2.458-4.81-3.385-7.21-2.008l-30.485,17.193c-1.54,0.87-2.553,2.438-2.677,4.217
		c-0.125,1.779,0.631,3.481,2.018,4.552l30.495,23.915c0.947,0.746,2.075,1.129,3.261,1.129c1.645,0,3.165-0.746,4.169-2.027
		c1.798-2.295,1.396-5.623-0.899-7.43l-24.26-19.02l23.59-13.311C267.816,248.07,268.715,244.838,267.291,242.285z"/>
	<path d="M340.252,257.48l-30.484-17.184c-2.449-1.396-5.834-0.459-7.221,1.998c-1.434,2.544-0.525,5.776,2.018,7.21l23.592,13.311
		l-24.262,19.029c-2.295,1.807-2.695,5.135-0.898,7.42c0.994,1.291,2.525,2.027,4.17,2.027c1.186,0,2.314-0.383,3.27-1.129
		l30.477-23.906c1.387-1.081,2.143-2.783,2.018-4.581C342.805,259.918,341.791,258.35,340.252,257.48z"/>
	<path d="M293.129,225.503c-2.945-0.593-5.672,1.377-6.217,4.208l-14.2,73.985c-0.268,1.387,0.019,2.793,0.822,3.969
		c0.784,1.176,1.989,1.961,3.385,2.229c0.325,0.066,0.669,0.096,0.994,0.096c2.534,0,4.714-1.809,5.192-4.305l14.19-73.994
		c0.268-1.387-0.02-2.792-0.812-3.959C295.691,226.545,294.496,225.761,293.129,225.503z"/>
</g>
<g>
</g>
<g>
</g>
<g>
</g>
<g>
</g>
<g>
</g>
<g>
</g>
<g>
</g>
<g>
</g>
<g>
</g>
<g>
</g>
<g>
</g>
<g>
</g>
<g>
</g>
<g>
</g>
<g>
</g>
</svg>
