<?xml version="1.0" encoding="iso-8859-1"?>
<!-- Generator: Adobe Illustrator 18.0.0, SVG Export Plug-In . SVG Version: 6.00 Build 0)  -->
<!DOCTYPE svg PUBLIC "-//W3C//DTD SVG 1.1//EN" "http://www.w3.org/Graphics/SVG/1.1/DTD/svg11.dtd">
<svg version="1.1" id="Capa_1" xmlns="http://www.w3.org/2000/svg" xmlns:xlink="http://www.w3.org/1999/xlink" x="0px" y="0px"
	 viewBox="0 0 460 460" style="enable-background:new 0 0 460 460;" xml:space="preserve">
<g id="XMLID_843_">
	<path id="XMLID_855_" d="M299.569,156.823l-67.332-21.047c-1.457-0.456-3.019-0.456-4.476,0l-67.332,21.047
		c-3.131,0.979-5.262,3.878-5.262,7.158v76.936c0,14.945,8.091,28.78,21.117,36.107l50.038,28.146
		c1.141,0.642,2.409,0.963,3.677,0.963s2.536-0.321,3.677-0.963l50.038-28.146c13.026-7.327,21.117-21.162,21.117-36.107v-76.936
		C304.832,160.701,302.7,157.802,299.569,156.823z M289.832,240.917c0,9.534-5.162,18.359-13.471,23.034L230,290.029l-46.361-26.078
		c-8.309-4.674-13.471-13.5-13.471-23.034v-71.422L230,150.792l59.832,18.703V240.917z"/>
	<path id="XMLID_911_" d="M182.524,175.461c-3.13,0.979-5.262,3.878-5.262,7.159v51.692c0,10.929,5.917,21.046,15.442,26.404
		l33.619,18.911c1.142,0.643,2.41,0.963,3.677,0.963c1.309,0,2.618-0.342,3.786-1.026c2.3-1.345,3.714-3.81,3.714-6.474V168.479
		c0-2.386-1.135-4.629-3.058-6.043c-1.923-1.413-4.402-1.827-6.68-1.116L182.524,175.461z M222.5,260.266l-22.442-12.624
		c-4.809-2.706-7.796-7.813-7.796-13.331v-46.178l30.238-9.452V260.266z"/>
	<path id="XMLID_998_" d="M452.5,319.239h-31.196V110.043c0-18.004-14.647-32.652-32.652-32.652H71.348
		c-18.004,0-32.652,14.648-32.652,32.652v209.196H7.5c-4.142,0-7.5,3.358-7.5,7.5v21.87c0,18.748,15.252,34,34,34h392
		c18.748,0,34-15.252,34-34v-21.87C460,322.597,456.642,319.239,452.5,319.239z M53.696,110.043c0-9.733,7.918-17.652,17.652-17.652
		h317.305c9.733,0,17.652,7.919,17.652,17.652v209.196h-14.021V114.88c0-4.142-3.358-7.5-7.5-7.5H75.217c-4.142,0-7.5,3.358-7.5,7.5
		v204.359H53.696V110.043z M82.717,319.239V122.38h294.565v196.859H82.717z M445,348.609c0,10.477-8.523,19-19,19H34
		c-10.477,0-19-8.523-19-19v-14.37h430V348.609z"/>
</g>
<g>
</g>
<g>
</g>
<g>
</g>
<g>
</g>
<g>
</g>
<g>
</g>
<g>
</g>
<g>
</g>
<g>
</g>
<g>
</g>
<g>
</g>
<g>
</g>
<g>
</g>
<g>
</g>
<g>
</g>
</svg>
