<?xml version="1.0" encoding="UTF-8" standalone="no"?>
<!-- Created with Inkscape (http://www.inkscape.org/) -->

<svg
   xmlns:dc="http://purl.org/dc/elements/1.1/"
   xmlns:cc="http://creativecommons.org/ns#"
   xmlns:rdf="http://www.w3.org/1999/02/22-rdf-syntax-ns#"
   xmlns:svg="http://www.w3.org/2000/svg"
   xmlns="http://www.w3.org/2000/svg"
   version="1.1"
   width="569.6922"
   height="569.4057"
   id="svg2"
   xml:space="preserve"><metadata
     id="metadata8"><rdf:RDF><cc:Work
         rdf:about=""><dc:format>image/svg+xml</dc:format><dc:type
           rdf:resource="http://purl.org/dc/dcmitype/StillImage" /><dc:title></dc:title></cc:Work></rdf:RDF></metadata><defs
     id="defs6"><clipPath
       id="clipPath16"><path
         d="m 0,907.09 1275.59,0 L 1275.59,0 0,0 0,907.09 z"
         id="path18" /></clipPath></defs><g
     transform="matrix(1.25,0,0,-1.25,-30.099464,851.63408)"
     id="g10"><g
       id="g12"><g
         clip-path="url(#clipPath16)"
         id="g14"><g
           transform="translate(246.1815,225.7827)"
           id="g20"><path
             d="m 0,0 c -7.252,2.511 -12.648,7.493 -17.969,12.825 -64.675,64.81 -129.442,129.529 -194.184,194.273 -13.227,13.227 -13.28,28.027 -0.07,41.241 65.742,65.764 131.495,131.515 197.257,197.259 13.21,13.207 28.12,13.227 41.281,0.11 8.966,-8.937 17.918,-17.888 27.151,-27.107 -1.497,-1.583 -2.758,-2.979 -4.085,-4.309 -42.739,-42.824 -86.097,-85.055 -128.008,-128.675 -26.376,-27.454 -33.681,-61.354 -22.566,-97.721 11.104,-36.332 36.154,-59.89 73.171,-68.757 36.826,-8.821 69.179,1.281 96.009,27.895 41.562,41.227 82.84,82.74 124.203,124.167 1.374,1.376 2.367,3.131 3.453,4.595 10.983,-10.836 21.453,-20.56 31.203,-30.96 9.517,-10.151 8.862,-25.205 -0.77,-35.339 -2.95,-3.104 -6.043,-6.071 -9.072,-9.1 C 154.785,138.178 92.626,75.9 30.243,13.845 24.842,8.473 17.97,4.58 11.781,0 L 0,0 z"
             id="path22"
             style="fill:#fdbb2f;fill-opacity:1;fill-rule:nonzero;stroke:none" /></g><g
           transform="translate(347.275,596.0889)"
           id="g32"><path
             d="m 0,0 c 15.829,-15.823 31.581,-31.568 48.229,-48.209 -1.565,-1.167 -3.447,-2.244 -4.928,-3.722 -41.272,-41.204 -82.475,-82.477 -123.756,-123.672 -16.145,-16.111 -40.288,-14.594 -52.974,3.168 -9.041,12.659 -8.279,30.922 2.602,41.873 43.116,43.395 86.454,86.57 129.72,129.816 C -0.751,-0.39 -0.258,-0.17 0,0"
             id="path34"
             style="fill:#fdbb2f;fill-opacity:1;fill-rule:nonzero;stroke:none" /></g></g></g></g></svg>